# xmcd CD database file
#
# Track frame offsets:
#	187
#	21750
#	41435
#	59232
#	74572
#	95360
#	112895
#	123822
#	140257
#	161037
#
# Disc length: 2389 seconds
#
# Revision: 0
# Processed by: cddbd v1.4PL0 Copyright (c) Steve Scherf et al.
# Submitted via: CDex 1.50beta10
#
DISCID=8709530a
DTITLE=Nick DeCaro - Italian Graffiti
DYEAR=1974
DGENRE=AOR
TTITLE0=Under The Jamaican Moon
TTITLE1=Happier Than The Morning Sun
TTITLE2=Tea For Two
TTITLE3=All I Want
TTITLE4=Wailing Wall
TTITLE5=Angie Girl
TTITLE6=Getting Mighty Crowded
TTITLE7=While The City Sleeps
TTITLE8=Canned Music
TTITLE9=Tapestry
EXTD=YEAR: 1974
EXTT0=
EXTT1=
EXTT2=
EXTT3=
EXTT4=
EXTT5=
EXTT6=
EXTT7=
EXTT8=
EXTT9=
PLAYORDER=
